<mxfile host="app.diagrams.net" agent="Mozilla/5.0 (Windows NT 10.0; Win64; x64) AppleWebKit/537.36 (KHTML, like Gecko) Chrome/133.0.0.0 Safari/537.36" version="26.0.16">
  <diagram name="페이지-1" id="BiTAMbIstXAC1tg_ggwF">
    <mxGraphModel grid="0" page="1" gridSize="10" guides="1" tooltips="1" connect="1" arrows="1" fold="1" pageScale="1" pageWidth="1169" pageHeight="827" math="0" shadow="0">
      <root>
        <mxCell id="0" />
        <mxCell id="1" parent="0" />
        <mxCell id="uaHLDQwjz9tMv7Oc_FCY-2" value="" style="rounded=0;whiteSpace=wrap;html=1;" vertex="1" parent="1">
          <mxGeometry x="74" y="402" width="190" height="260" as="geometry" />
        </mxCell>
        <mxCell id="iWG-IkDMkCXDMDSlFYjQ-2" value="" style="rounded=0;whiteSpace=wrap;html=1;" vertex="1" parent="1">
          <mxGeometry x="378" y="78" width="190" height="260" as="geometry" />
        </mxCell>
        <mxCell id="iWG-IkDMkCXDMDSlFYjQ-17" value="" style="rounded=0;whiteSpace=wrap;html=1;fillColor=none;" vertex="1" parent="1">
          <mxGeometry x="393.75" y="158" width="160" height="160" as="geometry" />
        </mxCell>
        <mxCell id="iWG-IkDMkCXDMDSlFYjQ-3" value="접속중인 유저" style="text;html=1;align=left;verticalAlign=middle;whiteSpace=wrap;rounded=0;fontStyle=1" vertex="1" parent="1">
          <mxGeometry x="388" y="88" width="90" height="30" as="geometry" />
        </mxCell>
        <mxCell id="iWG-IkDMkCXDMDSlFYjQ-10" value="유저1" style="text;html=1;align=left;verticalAlign=middle;whiteSpace=wrap;rounded=0;" vertex="1" parent="1">
          <mxGeometry x="398" y="163" width="110" height="30" as="geometry" />
        </mxCell>
        <mxCell id="iWG-IkDMkCXDMDSlFYjQ-11" value="유저2" style="text;html=1;align=left;verticalAlign=middle;whiteSpace=wrap;rounded=0;" vertex="1" parent="1">
          <mxGeometry x="398" y="193" width="110" height="30" as="geometry" />
        </mxCell>
        <mxCell id="iWG-IkDMkCXDMDSlFYjQ-12" value="유저3" style="text;html=1;align=left;verticalAlign=middle;whiteSpace=wrap;rounded=0;" vertex="1" parent="1">
          <mxGeometry x="398" y="223" width="110" height="30" as="geometry" />
        </mxCell>
        <mxCell id="iWG-IkDMkCXDMDSlFYjQ-13" value="유저4" style="text;html=1;align=left;verticalAlign=middle;whiteSpace=wrap;rounded=0;" vertex="1" parent="1">
          <mxGeometry x="398" y="253" width="110" height="30" as="geometry" />
        </mxCell>
        <mxCell id="iWG-IkDMkCXDMDSlFYjQ-14" value="유저5" style="text;html=1;align=left;verticalAlign=middle;whiteSpace=wrap;rounded=0;" vertex="1" parent="1">
          <mxGeometry x="398" y="283" width="110" height="30" as="geometry" />
        </mxCell>
        <mxCell id="iWG-IkDMkCXDMDSlFYjQ-15" value="" style="rounded=0;whiteSpace=wrap;html=1;" vertex="1" parent="1">
          <mxGeometry x="376" y="399.5" width="190" height="260" as="geometry" />
        </mxCell>
        <mxCell id="iWG-IkDMkCXDMDSlFYjQ-19" value="" style="rounded=0;whiteSpace=wrap;html=1;" vertex="1" parent="1">
          <mxGeometry x="390" y="459.5" width="166" height="185" as="geometry" />
        </mxCell>
        <mxCell id="iWG-IkDMkCXDMDSlFYjQ-21" value="대화방 생성" style="text;html=1;align=center;verticalAlign=middle;whiteSpace=wrap;rounded=0;strokeColor=default;" vertex="1" parent="1">
          <mxGeometry x="475" y="114" width="78" height="30" as="geometry" />
        </mxCell>
        <mxCell id="iWG-IkDMkCXDMDSlFYjQ-31" value="" style="rounded=0;whiteSpace=wrap;html=1;" vertex="1" parent="1">
          <mxGeometry x="699" y="399.5" width="190" height="260" as="geometry" />
        </mxCell>
        <mxCell id="mBTf8jm-HYWe5NaCZZ8Y-1" value="" style="ellipse;whiteSpace=wrap;html=1;aspect=fixed;" vertex="1" parent="1">
          <mxGeometry x="528" y="173" width="10" height="10" as="geometry" />
        </mxCell>
        <mxCell id="mBTf8jm-HYWe5NaCZZ8Y-2" value="" style="ellipse;whiteSpace=wrap;html=1;aspect=fixed;" vertex="1" parent="1">
          <mxGeometry x="528" y="203" width="10" height="10" as="geometry" />
        </mxCell>
        <mxCell id="mBTf8jm-HYWe5NaCZZ8Y-5" value="" style="ellipse;whiteSpace=wrap;html=1;aspect=fixed;" vertex="1" parent="1">
          <mxGeometry x="528" y="233" width="10" height="10" as="geometry" />
        </mxCell>
        <mxCell id="mBTf8jm-HYWe5NaCZZ8Y-6" value="" style="ellipse;whiteSpace=wrap;html=1;aspect=fixed;" vertex="1" parent="1">
          <mxGeometry x="528" y="263" width="10" height="10" as="geometry" />
        </mxCell>
        <mxCell id="mBTf8jm-HYWe5NaCZZ8Y-7" value="" style="ellipse;whiteSpace=wrap;html=1;aspect=fixed;" vertex="1" parent="1">
          <mxGeometry x="528" y="293" width="10" height="10" as="geometry" />
        </mxCell>
        <mxCell id="mBTf8jm-HYWe5NaCZZ8Y-8" value="대화방 목록" style="text;html=1;align=center;verticalAlign=middle;whiteSpace=wrap;rounded=0;strokeColor=default;" vertex="1" parent="1">
          <mxGeometry x="394" y="114" width="78" height="30" as="geometry" />
        </mxCell>
        <mxCell id="mBTf8jm-HYWe5NaCZZ8Y-9" value="대화방" style="text;html=1;align=left;verticalAlign=middle;whiteSpace=wrap;rounded=0;fontStyle=1" vertex="1" parent="1">
          <mxGeometry x="709" y="411.5" width="90" height="30" as="geometry" />
        </mxCell>
        <mxCell id="mBTf8jm-HYWe5NaCZZ8Y-10" value="대화방 목록" style="text;html=1;align=left;verticalAlign=middle;whiteSpace=wrap;rounded=0;fontStyle=1" vertex="1" parent="1">
          <mxGeometry x="384" y="409.5" width="90" height="30" as="geometry" />
        </mxCell>
        <mxCell id="mBTf8jm-HYWe5NaCZZ8Y-11" value="1번&lt;div&gt;&lt;br&gt;&lt;/div&gt;&lt;div&gt;2번&lt;/div&gt;&lt;div&gt;&lt;br&gt;&lt;/div&gt;&lt;div&gt;3번&lt;/div&gt;&lt;div&gt;&lt;br&gt;&lt;/div&gt;&lt;div&gt;4번&lt;/div&gt;&lt;div&gt;&lt;br&gt;&lt;/div&gt;&lt;div&gt;5번&lt;/div&gt;" style="text;html=1;align=left;verticalAlign=top;whiteSpace=wrap;rounded=0;" vertex="1" parent="1">
          <mxGeometry x="393" y="465.5" width="60" height="173" as="geometry" />
        </mxCell>
        <mxCell id="mBTf8jm-HYWe5NaCZZ8Y-12" value="유저1, 유저2&lt;div&gt;&lt;br&gt;&lt;/div&gt;&lt;div&gt;유저1, 유저2, 유저3&lt;/div&gt;&lt;div&gt;&lt;br&gt;&lt;/div&gt;&lt;div&gt;유저3, 유저4&lt;/div&gt;&lt;div&gt;&lt;br&gt;&lt;/div&gt;&lt;div&gt;유저5, 유저1, 유저4&lt;/div&gt;&lt;div&gt;&lt;br&gt;&lt;/div&gt;&lt;div&gt;유저3, 유저5&lt;/div&gt;" style="text;html=1;align=left;verticalAlign=top;whiteSpace=wrap;rounded=0;" vertex="1" parent="1">
          <mxGeometry x="425" y="465.5" width="114" height="173" as="geometry" />
        </mxCell>
        <mxCell id="mBTf8jm-HYWe5NaCZZ8Y-13" value="" style="rounded=0;whiteSpace=wrap;html=1;labelPosition=center;verticalLabelPosition=middle;align=left;verticalAlign=top;" vertex="1" parent="1">
          <mxGeometry x="709" y="462" width="168" height="160.5" as="geometry" />
        </mxCell>
        <mxCell id="mBTf8jm-HYWe5NaCZZ8Y-15" value="" style="rounded=0;whiteSpace=wrap;html=1;" vertex="1" parent="1">
          <mxGeometry x="709" y="631.5" width="119" height="21" as="geometry" />
        </mxCell>
        <mxCell id="mBTf8jm-HYWe5NaCZZ8Y-16" value="보내기" style="text;html=1;align=center;verticalAlign=middle;whiteSpace=wrap;rounded=0;labelBorderColor=default;" vertex="1" parent="1">
          <mxGeometry x="836" y="627" width="46" height="30" as="geometry" />
        </mxCell>
        <mxCell id="uaHLDQwjz9tMv7Oc_FCY-62" style="edgeStyle=orthogonalEdgeStyle;rounded=0;orthogonalLoop=1;jettySize=auto;html=1;exitX=0;exitY=0.5;exitDx=0;exitDy=0;entryX=0;entryY=0.5;entryDx=0;entryDy=0;" edge="1" parent="1" source="mBTf8jm-HYWe5NaCZZ8Y-17" target="uaHLDQwjz9tMv7Oc_FCY-63">
          <mxGeometry relative="1" as="geometry">
            <mxPoint x="926" y="708" as="targetPoint" />
            <Array as="points">
              <mxPoint x="684" y="447" />
              <mxPoint x="684" y="711" />
              <mxPoint x="926" y="711" />
              <mxPoint x="926" y="682" />
            </Array>
          </mxGeometry>
        </mxCell>
        <mxCell id="mBTf8jm-HYWe5NaCZZ8Y-17" value="파일전송" style="text;html=1;align=center;verticalAlign=middle;whiteSpace=wrap;rounded=0;labelBorderColor=default;" vertex="1" parent="1">
          <mxGeometry x="704" y="432" width="60" height="30" as="geometry" />
        </mxCell>
        <mxCell id="mBTf8jm-HYWe5NaCZZ8Y-18" value="퇴장" style="text;html=1;align=center;verticalAlign=middle;whiteSpace=wrap;rounded=0;labelBorderColor=default;" vertex="1" parent="1">
          <mxGeometry x="834" y="432" width="60" height="30" as="geometry" />
        </mxCell>
        <mxCell id="uaHLDQwjz9tMv7Oc_FCY-3" value="회원가입" style="text;html=1;align=left;verticalAlign=middle;whiteSpace=wrap;rounded=0;fontStyle=1" vertex="1" parent="1">
          <mxGeometry x="84" y="412" width="90" height="30" as="geometry" />
        </mxCell>
        <mxCell id="uaHLDQwjz9tMv7Oc_FCY-4" value="" style="rounded=0;whiteSpace=wrap;html=1;" vertex="1" parent="1">
          <mxGeometry x="74" y="78" width="190" height="260" as="geometry" />
        </mxCell>
        <mxCell id="uaHLDQwjz9tMv7Oc_FCY-5" value="&lt;font style=&quot;font-size: 20px;&quot;&gt;카카오톡&lt;/font&gt;" style="text;html=1;align=center;verticalAlign=middle;whiteSpace=wrap;rounded=0;fontStyle=1" vertex="1" parent="1">
          <mxGeometry x="124" y="133" width="90" height="30" as="geometry" />
        </mxCell>
        <mxCell id="uaHLDQwjz9tMv7Oc_FCY-6" value="" style="rounded=0;whiteSpace=wrap;html=1;" vertex="1" parent="1">
          <mxGeometry x="127" y="190" width="95" height="19" as="geometry" />
        </mxCell>
        <mxCell id="uaHLDQwjz9tMv7Oc_FCY-7" value="ID" style="text;html=1;align=center;verticalAlign=middle;whiteSpace=wrap;rounded=0;" vertex="1" parent="1">
          <mxGeometry x="91" y="184.5" width="29" height="30" as="geometry" />
        </mxCell>
        <mxCell id="uaHLDQwjz9tMv7Oc_FCY-8" value="" style="rounded=0;whiteSpace=wrap;html=1;" vertex="1" parent="1">
          <mxGeometry x="127" y="222.5" width="95" height="19" as="geometry" />
        </mxCell>
        <mxCell id="uaHLDQwjz9tMv7Oc_FCY-9" value="PW" style="text;html=1;align=center;verticalAlign=middle;whiteSpace=wrap;rounded=0;" vertex="1" parent="1">
          <mxGeometry x="91" y="217" width="29" height="30" as="geometry" />
        </mxCell>
        <mxCell id="uaHLDQwjz9tMv7Oc_FCY-31" style="edgeStyle=orthogonalEdgeStyle;rounded=0;orthogonalLoop=1;jettySize=auto;html=1;exitX=0;exitY=0.5;exitDx=0;exitDy=0;entryX=-0.007;entryY=0.103;entryDx=0;entryDy=0;entryPerimeter=0;" edge="1" parent="1" source="uaHLDQwjz9tMv7Oc_FCY-10" target="uaHLDQwjz9tMv7Oc_FCY-2">
          <mxGeometry relative="1" as="geometry">
            <mxPoint x="19.761913481212787" y="431.4762311662946" as="targetPoint" />
            <Array as="points">
              <mxPoint x="38" y="268" />
              <mxPoint x="38" y="429" />
            </Array>
          </mxGeometry>
        </mxCell>
        <mxCell id="uaHLDQwjz9tMv7Oc_FCY-10" value="회원가입" style="text;html=1;align=center;verticalAlign=middle;whiteSpace=wrap;rounded=0;labelBorderColor=default;" vertex="1" parent="1">
          <mxGeometry x="103" y="253" width="60" height="30" as="geometry" />
        </mxCell>
        <mxCell id="uaHLDQwjz9tMv7Oc_FCY-11" value="로그인" style="text;html=1;align=center;verticalAlign=middle;whiteSpace=wrap;rounded=0;labelBorderColor=default;" vertex="1" parent="1">
          <mxGeometry x="174" y="253" width="60" height="30" as="geometry" />
        </mxCell>
        <mxCell id="uaHLDQwjz9tMv7Oc_FCY-14" value="" style="rounded=0;whiteSpace=wrap;html=1;" vertex="1" parent="1">
          <mxGeometry x="127" y="523" width="95" height="19" as="geometry" />
        </mxCell>
        <mxCell id="uaHLDQwjz9tMv7Oc_FCY-15" value="" style="rounded=0;whiteSpace=wrap;html=1;" vertex="1" parent="1">
          <mxGeometry x="127" y="490.5" width="95" height="19" as="geometry" />
        </mxCell>
        <mxCell id="uaHLDQwjz9tMv7Oc_FCY-16" value="ID" style="text;html=1;align=center;verticalAlign=middle;whiteSpace=wrap;rounded=0;" vertex="1" parent="1">
          <mxGeometry x="91" y="485" width="29" height="30" as="geometry" />
        </mxCell>
        <mxCell id="uaHLDQwjz9tMv7Oc_FCY-17" value="PW" style="text;html=1;align=center;verticalAlign=middle;whiteSpace=wrap;rounded=0;" vertex="1" parent="1">
          <mxGeometry x="91" y="517.5" width="29" height="30" as="geometry" />
        </mxCell>
        <mxCell id="uaHLDQwjz9tMv7Oc_FCY-18" value="" style="rounded=0;whiteSpace=wrap;html=1;" vertex="1" parent="1">
          <mxGeometry x="127" y="557.5" width="95" height="19" as="geometry" />
        </mxCell>
        <mxCell id="uaHLDQwjz9tMv7Oc_FCY-19" value="이름" style="text;html=1;align=center;verticalAlign=middle;whiteSpace=wrap;rounded=0;" vertex="1" parent="1">
          <mxGeometry x="91" y="552" width="29" height="30" as="geometry" />
        </mxCell>
        <mxCell id="uaHLDQwjz9tMv7Oc_FCY-20" value="로그인&amp;lt;Page 1&amp;gt;" style="text;html=1;align=center;verticalAlign=middle;whiteSpace=wrap;rounded=0;" vertex="1" parent="1">
          <mxGeometry x="114" y="345" width="110" height="30" as="geometry" />
        </mxCell>
        <mxCell id="uaHLDQwjz9tMv7Oc_FCY-24" value="회원가입&amp;lt;Page 2&amp;gt;" style="text;html=1;align=center;verticalAlign=middle;whiteSpace=wrap;rounded=0;" vertex="1" parent="1">
          <mxGeometry x="114" y="667" width="110" height="30" as="geometry" />
        </mxCell>
        <mxCell id="uaHLDQwjz9tMv7Oc_FCY-25" value="메인&amp;lt;Page 3&amp;gt;" style="text;html=1;align=center;verticalAlign=middle;whiteSpace=wrap;rounded=0;" vertex="1" parent="1">
          <mxGeometry x="420" y="345" width="110" height="30" as="geometry" />
        </mxCell>
        <mxCell id="uaHLDQwjz9tMv7Oc_FCY-29" style="edgeStyle=orthogonalEdgeStyle;rounded=0;orthogonalLoop=1;jettySize=auto;html=1;exitX=1;exitY=0.5;exitDx=0;exitDy=0;entryX=-0.009;entryY=0.08;entryDx=0;entryDy=0;entryPerimeter=0;" edge="1" parent="1" source="uaHLDQwjz9tMv7Oc_FCY-11" target="iWG-IkDMkCXDMDSlFYjQ-2">
          <mxGeometry relative="1" as="geometry" />
        </mxCell>
        <mxCell id="uaHLDQwjz9tMv7Oc_FCY-32" style="edgeStyle=orthogonalEdgeStyle;rounded=0;orthogonalLoop=1;jettySize=auto;html=1;exitX=1;exitY=0.25;exitDx=0;exitDy=0;entryX=0.012;entryY=0.088;entryDx=0;entryDy=0;entryPerimeter=0;" edge="1" parent="1" source="mBTf8jm-HYWe5NaCZZ8Y-12" target="iWG-IkDMkCXDMDSlFYjQ-31">
          <mxGeometry relative="1" as="geometry" />
        </mxCell>
        <mxCell id="uaHLDQwjz9tMv7Oc_FCY-33" value="대화방 목록&amp;lt;Window 1&amp;gt;" style="text;html=1;align=center;verticalAlign=middle;whiteSpace=wrap;rounded=0;" vertex="1" parent="1">
          <mxGeometry x="405" y="667" width="140" height="30" as="geometry" />
        </mxCell>
        <mxCell id="uaHLDQwjz9tMv7Oc_FCY-34" value="대화방&amp;lt;Window 2&amp;gt;" style="text;html=1;align=center;verticalAlign=middle;whiteSpace=wrap;rounded=0;" vertex="1" parent="1">
          <mxGeometry x="724" y="667" width="140" height="30" as="geometry" />
        </mxCell>
        <mxCell id="uaHLDQwjz9tMv7Oc_FCY-55" style="edgeStyle=orthogonalEdgeStyle;rounded=0;orthogonalLoop=1;jettySize=auto;html=1;exitX=1;exitY=0.5;exitDx=0;exitDy=0;entryX=1;entryY=0.5;entryDx=0;entryDy=0;" edge="1" parent="1" source="uaHLDQwjz9tMv7Oc_FCY-35" target="uaHLDQwjz9tMv7Oc_FCY-20">
          <mxGeometry relative="1" as="geometry">
            <Array as="points">
              <mxPoint x="305" y="612" />
              <mxPoint x="305" y="360" />
            </Array>
          </mxGeometry>
        </mxCell>
        <mxCell id="uaHLDQwjz9tMv7Oc_FCY-35" value="제출" style="text;html=1;align=center;verticalAlign=middle;whiteSpace=wrap;rounded=0;labelBorderColor=default;" vertex="1" parent="1">
          <mxGeometry x="181" y="597" width="60" height="30" as="geometry" />
        </mxCell>
        <mxCell id="uaHLDQwjz9tMv7Oc_FCY-36" value="초대하기" style="text;html=1;align=center;verticalAlign=middle;whiteSpace=wrap;rounded=0;labelBorderColor=default;" vertex="1" parent="1">
          <mxGeometry x="770" y="432" width="60" height="30" as="geometry" />
        </mxCell>
        <mxCell id="uaHLDQwjz9tMv7Oc_FCY-37" value="" style="rounded=0;whiteSpace=wrap;html=1;" vertex="1" parent="1">
          <mxGeometry x="699" y="78" width="190" height="260" as="geometry" />
        </mxCell>
        <mxCell id="uaHLDQwjz9tMv7Oc_FCY-38" value="" style="rounded=0;whiteSpace=wrap;html=1;fillColor=none;" vertex="1" parent="1">
          <mxGeometry x="714.75" y="158" width="160" height="160" as="geometry" />
        </mxCell>
        <mxCell id="uaHLDQwjz9tMv7Oc_FCY-39" value="유저1" style="text;html=1;align=left;verticalAlign=middle;whiteSpace=wrap;rounded=0;" vertex="1" parent="1">
          <mxGeometry x="719" y="163" width="110" height="30" as="geometry" />
        </mxCell>
        <mxCell id="uaHLDQwjz9tMv7Oc_FCY-40" value="" style="ellipse;whiteSpace=wrap;html=1;aspect=fixed;" vertex="1" parent="1">
          <mxGeometry x="849" y="173" width="10" height="10" as="geometry" />
        </mxCell>
        <mxCell id="uaHLDQwjz9tMv7Oc_FCY-41" value="" style="ellipse;whiteSpace=wrap;html=1;aspect=fixed;" vertex="1" parent="1">
          <mxGeometry x="849" y="203" width="10" height="10" as="geometry" />
        </mxCell>
        <mxCell id="uaHLDQwjz9tMv7Oc_FCY-42" value="유저2" style="text;html=1;align=left;verticalAlign=middle;whiteSpace=wrap;rounded=0;" vertex="1" parent="1">
          <mxGeometry x="719" y="193" width="110" height="30" as="geometry" />
        </mxCell>
        <mxCell id="uaHLDQwjz9tMv7Oc_FCY-43" value="유저3" style="text;html=1;align=left;verticalAlign=middle;whiteSpace=wrap;rounded=0;" vertex="1" parent="1">
          <mxGeometry x="719" y="223" width="110" height="30" as="geometry" />
        </mxCell>
        <mxCell id="uaHLDQwjz9tMv7Oc_FCY-44" value="" style="ellipse;whiteSpace=wrap;html=1;aspect=fixed;" vertex="1" parent="1">
          <mxGeometry x="849" y="233" width="10" height="10" as="geometry" />
        </mxCell>
        <mxCell id="uaHLDQwjz9tMv7Oc_FCY-45" value="유저4" style="text;html=1;align=left;verticalAlign=middle;whiteSpace=wrap;rounded=0;" vertex="1" parent="1">
          <mxGeometry x="719" y="253" width="110" height="30" as="geometry" />
        </mxCell>
        <mxCell id="uaHLDQwjz9tMv7Oc_FCY-46" value="" style="ellipse;whiteSpace=wrap;html=1;aspect=fixed;" vertex="1" parent="1">
          <mxGeometry x="849" y="263" width="10" height="10" as="geometry" />
        </mxCell>
        <mxCell id="uaHLDQwjz9tMv7Oc_FCY-47" value="유저5" style="text;html=1;align=left;verticalAlign=middle;whiteSpace=wrap;rounded=0;" vertex="1" parent="1">
          <mxGeometry x="719" y="283" width="110" height="30" as="geometry" />
        </mxCell>
        <mxCell id="uaHLDQwjz9tMv7Oc_FCY-48" value="" style="ellipse;whiteSpace=wrap;html=1;aspect=fixed;" vertex="1" parent="1">
          <mxGeometry x="849" y="293" width="10" height="10" as="geometry" />
        </mxCell>
        <mxCell id="uaHLDQwjz9tMv7Oc_FCY-49" value="초대하기&amp;lt;Window 3&amp;gt;" style="text;html=1;align=center;verticalAlign=middle;whiteSpace=wrap;rounded=0;" vertex="1" parent="1">
          <mxGeometry x="743" y="345" width="119" height="30" as="geometry" />
        </mxCell>
        <mxCell id="uaHLDQwjz9tMv7Oc_FCY-50" value="초대하기" style="text;html=1;align=left;verticalAlign=middle;whiteSpace=wrap;rounded=0;fontStyle=1" vertex="1" parent="1">
          <mxGeometry x="714.75" y="88" width="90" height="30" as="geometry" />
        </mxCell>
        <mxCell id="uaHLDQwjz9tMv7Oc_FCY-51" value="초대하기" style="text;html=1;align=center;verticalAlign=middle;whiteSpace=wrap;rounded=0;strokeColor=default;" vertex="1" parent="1">
          <mxGeometry x="796" y="114" width="78" height="30" as="geometry" />
        </mxCell>
        <mxCell id="uaHLDQwjz9tMv7Oc_FCY-52" style="edgeStyle=orthogonalEdgeStyle;rounded=0;orthogonalLoop=1;jettySize=auto;html=1;exitX=0.5;exitY=0;exitDx=0;exitDy=0;entryX=0.002;entryY=0.074;entryDx=0;entryDy=0;entryPerimeter=0;" edge="1" parent="1" source="uaHLDQwjz9tMv7Oc_FCY-36" target="uaHLDQwjz9tMv7Oc_FCY-37">
          <mxGeometry relative="1" as="geometry" />
        </mxCell>
        <mxCell id="uaHLDQwjz9tMv7Oc_FCY-53" value="ID : 대화내용" style="text;html=1;align=center;verticalAlign=middle;whiteSpace=wrap;rounded=0;" vertex="1" parent="1">
          <mxGeometry x="709" y="465.5" width="83" height="30" as="geometry" />
        </mxCell>
        <mxCell id="uaHLDQwjz9tMv7Oc_FCY-54" value="hh:mm" style="text;html=1;align=center;verticalAlign=middle;whiteSpace=wrap;rounded=0;" vertex="1" parent="1">
          <mxGeometry x="823" y="465.5" width="53" height="30" as="geometry" />
        </mxCell>
        <mxCell id="uaHLDQwjz9tMv7Oc_FCY-58" style="edgeStyle=orthogonalEdgeStyle;rounded=0;orthogonalLoop=1;jettySize=auto;html=1;exitX=0;exitY=0.5;exitDx=0;exitDy=0;entryX=0.001;entryY=0.099;entryDx=0;entryDy=0;entryPerimeter=0;" edge="1" parent="1" source="mBTf8jm-HYWe5NaCZZ8Y-8" target="iWG-IkDMkCXDMDSlFYjQ-15">
          <mxGeometry relative="1" as="geometry">
            <Array as="points">
              <mxPoint x="333" y="129" />
              <mxPoint x="333" y="425" />
            </Array>
          </mxGeometry>
        </mxCell>
        <mxCell id="uaHLDQwjz9tMv7Oc_FCY-60" value="" style="rounded=0;whiteSpace=wrap;html=1;" vertex="1" parent="1">
          <mxGeometry x="952" y="576" width="190" height="83.5" as="geometry" />
        </mxCell>
        <mxCell id="uaHLDQwjz9tMv7Oc_FCY-63" value="파일전송&amp;lt;Window 4&amp;gt;" style="text;html=1;align=center;verticalAlign=middle;whiteSpace=wrap;rounded=0;" vertex="1" parent="1">
          <mxGeometry x="983" y="667" width="140" height="30" as="geometry" />
        </mxCell>
        <mxCell id="uaHLDQwjz9tMv7Oc_FCY-64" value="파일 이름" style="rounded=0;whiteSpace=wrap;html=1;align=left;" vertex="1" parent="1">
          <mxGeometry x="961" y="622" width="136" height="22.5" as="geometry" />
        </mxCell>
        <mxCell id="uaHLDQwjz9tMv7Oc_FCY-65" value="파일 전송" style="text;html=1;align=left;verticalAlign=middle;whiteSpace=wrap;rounded=0;fontStyle=1" vertex="1" parent="1">
          <mxGeometry x="961" y="582" width="90" height="30" as="geometry" />
        </mxCell>
        <mxCell id="uaHLDQwjz9tMv7Oc_FCY-67" value="전송" style="text;html=1;align=center;verticalAlign=middle;whiteSpace=wrap;rounded=0;labelBorderColor=default;" vertex="1" parent="1">
          <mxGeometry x="1106" y="618" width="28" height="30" as="geometry" />
        </mxCell>
      </root>
    </mxGraphModel>
  </diagram>
</mxfile>
